<svg xmlns="http://www.w3.org/2000/svg" xmlns:xlink="http://www.w3.org/1999/xlink" width="500" zoomAndPan="magnify" viewBox="0 0 375 374.999991" height="500" preserveAspectRatio="xMidYMid meet" version="1.0"><defs><g/><clipPath id="d3e393814f"><path d="M 46.8125 174 L 91 174 L 91 217.96875 L 46.8125 217.96875 Z M 46.8125 174 " clip-rule="nonzero"/></clipPath><clipPath id="712fd165a4"><path d="M 76 144.46875 L 120.3125 144.46875 L 120.3125 188 L 76 188 Z M 76 144.46875 " clip-rule="nonzero"/></clipPath></defs><path fill="#ffffff" d="M 76.667969 167.582031 C 76.179688 167.09375 75.8125 166.527344 75.566406 165.878906 C 75.316406 165.234375 75.214844 164.566406 75.253906 163.875 L 75.554688 158.457031 C 75.589844 157.78125 75.488281 157.132812 75.25 156.5 C 75.007812 155.871094 74.648438 155.320312 74.171875 154.839844 L 69.542969 150.214844 C 69.070312 149.738281 68.519531 149.382812 67.894531 149.140625 C 67.269531 148.902344 66.621094 148.796875 65.949219 148.832031 L 61.347656 149.066406 C 61.125 149.078125 60.925781 149.148438 60.746094 149.28125 C 60.566406 149.410156 60.433594 149.578125 60.355469 149.785156 C 60.277344 149.992188 60.257812 150.207031 60.304688 150.421875 C 60.351562 150.640625 60.453125 150.828125 60.609375 150.984375 L 63.945312 154.316406 C 64.183594 154.558594 64.394531 154.816406 64.582031 155.097656 C 64.769531 155.378906 64.929688 155.675781 65.058594 155.988281 C 65.1875 156.300781 65.285156 156.621094 65.351562 156.953125 C 65.417969 157.285156 65.449219 157.621094 65.449219 157.957031 C 65.449219 158.296875 65.417969 158.628906 65.351562 158.960938 C 65.285156 159.292969 65.1875 159.617188 65.058594 159.925781 C 64.929688 160.238281 64.769531 160.535156 64.582031 160.816406 C 64.394531 161.097656 64.183594 161.359375 63.945312 161.597656 C 63.703125 161.835938 63.445312 162.050781 63.164062 162.238281 C 62.882812 162.425781 62.585938 162.582031 62.273438 162.714844 C 61.960938 162.84375 61.640625 162.941406 61.308594 163.007812 C 60.976562 163.070312 60.640625 163.105469 60.304688 163.105469 C 59.964844 163.105469 59.632812 163.070312 59.300781 163.007812 C 58.96875 162.941406 58.648438 162.84375 58.335938 162.714844 C 58.023438 162.582031 57.726562 162.425781 57.445312 162.238281 C 57.164062 162.050781 56.902344 161.835938 56.664062 161.597656 L 53.332031 158.261719 C 53.171875 158.105469 52.988281 158.003906 52.769531 157.957031 C 52.550781 157.914062 52.339844 157.929688 52.132812 158.007812 C 51.925781 158.089844 51.757812 158.21875 51.625 158.398438 C 51.496094 158.578125 51.425781 158.777344 51.414062 159 L 51.179688 163.605469 C 51.144531 164.273438 51.246094 164.921875 51.488281 165.546875 C 51.730469 166.175781 52.085938 166.722656 52.558594 167.199219 L 57.1875 171.824219 C 57.664062 172.300781 58.21875 172.660156 58.847656 172.902344 C 59.476562 173.144531 60.128906 173.246094 60.800781 173.207031 L 66.222656 172.90625 C 66.910156 172.867188 67.578125 172.972656 68.226562 173.21875 C 68.871094 173.464844 69.441406 173.832031 69.929688 174.324219 L 90.480469 194.875 C 90.96875 195.363281 91.335938 195.929688 91.582031 196.578125 C 91.832031 197.222656 91.933594 197.890625 91.894531 198.582031 L 91.59375 204 C 91.558594 204.671875 91.660156 205.324219 91.898438 205.953125 C 92.140625 206.585938 92.5 207.136719 92.976562 207.613281 L 97.605469 212.242188 C 98.078125 212.714844 98.628906 213.074219 99.253906 213.316406 C 99.878906 213.554688 100.527344 213.660156 101.199219 213.625 L 105.800781 213.390625 C 106.023438 213.378906 106.222656 213.308594 106.402344 213.175781 C 106.582031 213.046875 106.714844 212.878906 106.792969 212.671875 C 106.871094 212.460938 106.890625 212.25 106.84375 212.03125 C 106.796875 211.816406 106.695312 211.628906 106.539062 211.472656 L 103.203125 208.136719 C 102.964844 207.898438 102.753906 207.640625 102.566406 207.359375 C 102.378906 207.078125 102.21875 206.78125 102.089844 206.46875 C 101.960938 206.15625 101.863281 205.835938 101.796875 205.503906 C 101.730469 205.171875 101.699219 204.835938 101.699219 204.5 C 101.699219 204.160156 101.730469 203.824219 101.796875 203.496094 C 101.863281 203.164062 101.960938 202.839844 102.089844 202.527344 C 102.21875 202.214844 102.378906 201.917969 102.566406 201.640625 C 102.753906 201.359375 102.964844 201.097656 103.203125 200.859375 C 103.445312 200.621094 103.703125 200.40625 103.984375 200.21875 C 104.265625 200.03125 104.5625 199.871094 104.875 199.742188 C 105.1875 199.613281 105.507812 199.515625 105.839844 199.449219 C 106.171875 199.382812 106.507812 199.351562 106.84375 199.351562 C 107.183594 199.351562 107.515625 199.382812 107.847656 199.449219 C 108.179688 199.515625 108.5 199.613281 108.8125 199.742188 C 109.125 199.871094 109.421875 200.03125 109.703125 200.21875 C 109.984375 200.40625 110.246094 200.621094 110.484375 200.859375 L 113.816406 204.191406 C 113.976562 204.351562 114.160156 204.453125 114.378906 204.496094 C 114.597656 204.542969 114.808594 204.527344 115.015625 204.445312 C 115.222656 204.367188 115.390625 204.238281 115.523438 204.058594 C 115.652344 203.878906 115.722656 203.675781 115.734375 203.457031 L 115.96875 198.851562 C 116.003906 198.183594 115.902344 197.535156 115.660156 196.90625 C 115.417969 196.28125 115.0625 195.730469 114.589844 195.257812 L 109.960938 190.628906 C 109.484375 190.152344 108.929688 189.792969 108.300781 189.554688 C 107.671875 189.3125 107.019531 189.210938 106.347656 189.25 L 100.925781 189.550781 C 100.238281 189.589844 99.566406 189.484375 98.921875 189.238281 C 98.277344 188.992188 97.707031 188.625 97.21875 188.132812 Z M 76.667969 167.582031 " fill-opacity="1" fill-rule="nonzero"/><path fill="#ffffff" d="M 69.992188 194.808594 C 71.113281 195.929688 72.355469 196.894531 73.714844 197.707031 C 75.074219 198.519531 76.511719 199.15625 78.027344 199.613281 C 79.542969 200.070312 81.09375 200.335938 82.675781 200.40625 C 84.257812 200.480469 85.824219 200.359375 87.378906 200.046875 C 87.773438 199.96875 88.101562 199.773438 88.367188 199.46875 C 88.628906 199.164062 88.773438 198.8125 88.796875 198.410156 C 88.824219 197.886719 88.65625 197.441406 88.285156 197.070312 L 86.390625 195.175781 C 85.769531 194.5625 85.023438 194.28125 84.152344 194.328125 C 83.699219 194.347656 83.246094 194.34375 82.792969 194.316406 C 82.339844 194.289062 81.890625 194.238281 81.441406 194.164062 C 80.996094 194.089844 80.550781 193.996094 80.113281 193.875 C 79.675781 193.753906 79.246094 193.613281 78.824219 193.449219 C 78.402344 193.285156 77.988281 193.097656 77.585938 192.890625 C 77.183594 192.683594 76.789062 192.457031 76.410156 192.210938 C 76.03125 191.960938 75.664062 191.695312 75.3125 191.410156 C 74.960938 191.125 74.625 190.820312 74.304688 190.5 C 73.984375 190.179688 73.679688 189.84375 73.394531 189.488281 C 73.109375 189.136719 72.839844 188.773438 72.59375 188.390625 C 72.347656 188.011719 72.117188 187.621094 71.910156 187.21875 C 71.703125 186.8125 71.519531 186.402344 71.355469 185.976562 C 71.191406 185.554688 71.046875 185.125 70.929688 184.6875 C 70.808594 184.25 70.710938 183.808594 70.636719 183.359375 C 70.566406 182.914062 70.515625 182.464844 70.488281 182.011719 C 70.460938 181.558594 70.457031 181.105469 70.476562 180.652344 C 70.523438 179.78125 70.238281 179.035156 69.625 178.414062 L 67.734375 176.519531 C 67.363281 176.148438 66.917969 175.976562 66.394531 176.007812 C 65.992188 176.03125 65.636719 176.171875 65.332031 176.4375 C 65.027344 176.699219 64.835938 177.03125 64.757812 177.425781 C 64.441406 178.976562 64.320312 180.546875 64.394531 182.128906 C 64.46875 183.710938 64.734375 185.257812 65.191406 186.777344 C 65.648438 188.292969 66.28125 189.730469 67.09375 191.089844 C 67.90625 192.449219 68.875 193.6875 69.992188 194.808594 Z M 69.992188 194.808594 " fill-opacity="1" fill-rule="nonzero"/><g clip-path="url(#d3e393814f)"><path fill="#ffffff" d="M 67.796875 197.003906 C 66.515625 195.71875 65.402344 194.300781 64.464844 192.742188 C 63.53125 191.1875 62.792969 189.542969 62.257812 187.808594 C 61.722656 186.070312 61.40625 184.296875 61.304688 182.484375 C 61.203125 180.667969 61.320312 178.871094 61.660156 177.085938 C 61.675781 176.988281 61.671875 176.886719 61.648438 176.789062 C 61.621094 176.695312 61.574219 176.605469 61.507812 176.53125 C 61.4375 176.453125 61.359375 176.398438 61.265625 176.359375 C 61.171875 176.320312 61.074219 176.304688 60.976562 176.308594 C 59.300781 176.398438 57.757812 175.996094 56.34375 175.101562 C 55.625 174.644531 54.84375 174.488281 54.003906 174.628906 L 48.386719 175.578125 C 48.167969 175.613281 47.960938 175.6875 47.765625 175.800781 C 47.570312 175.910156 47.398438 176.050781 47.253906 176.222656 C 47.109375 176.394531 47 176.582031 46.921875 176.792969 C 46.847656 177.003906 46.808594 177.222656 46.808594 177.445312 L 46.808594 185.011719 C 46.808594 185.234375 46.847656 185.453125 46.921875 185.664062 C 47 185.875 47.109375 186.0625 47.253906 186.234375 C 47.398438 186.40625 47.570312 186.546875 47.765625 186.660156 C 47.960938 186.769531 48.167969 186.84375 48.386719 186.882812 L 56.652344 188.277344 C 57.296875 190.746094 58.261719 193.082031 59.550781 195.285156 L 54.699219 202.113281 C 54.566406 202.296875 54.472656 202.496094 54.414062 202.710938 C 54.355469 202.925781 54.335938 203.148438 54.355469 203.371094 C 54.371094 203.59375 54.429688 203.804688 54.523438 204.011719 C 54.617188 204.214844 54.742188 204.394531 54.902344 204.550781 L 60.253906 209.902344 C 60.410156 210.058594 60.589844 210.1875 60.792969 210.28125 C 60.996094 210.375 61.210938 210.429688 61.433594 210.449219 C 61.65625 210.46875 61.875 210.449219 62.09375 210.390625 C 62.308594 210.328125 62.507812 210.234375 62.691406 210.105469 L 69.519531 205.253906 C 71.722656 206.542969 74.058594 207.507812 76.527344 208.152344 L 77.921875 216.414062 C 77.960938 216.636719 78.035156 216.84375 78.144531 217.039062 C 78.257812 217.234375 78.398438 217.402344 78.570312 217.546875 C 78.738281 217.691406 78.929688 217.800781 79.140625 217.878906 C 79.351562 217.957031 79.570312 217.996094 79.792969 217.996094 L 87.359375 217.996094 C 87.582031 217.996094 87.800781 217.957031 88.011719 217.878906 C 88.21875 217.800781 88.410156 217.691406 88.582031 217.546875 C 88.753906 217.402344 88.894531 217.234375 89.003906 217.039062 C 89.117188 216.84375 89.191406 216.636719 89.226562 216.414062 L 90.175781 210.800781 C 90.316406 209.957031 90.160156 209.175781 89.703125 208.457031 C 88.804688 207.042969 88.402344 205.5 88.496094 203.828125 C 88.5 203.726562 88.484375 203.628906 88.445312 203.535156 C 88.40625 203.441406 88.347656 203.363281 88.273438 203.296875 C 88.199219 203.230469 88.109375 203.183594 88.011719 203.15625 C 87.914062 203.128906 87.816406 203.125 87.71875 203.144531 C 85.933594 203.480469 84.132812 203.597656 82.320312 203.5 C 80.507812 203.398438 78.734375 203.078125 76.996094 202.542969 C 75.261719 202.007812 73.613281 201.273438 72.058594 200.335938 C 70.503906 199.398438 69.082031 198.289062 67.796875 197.003906 Z M 67.796875 197.003906 " fill-opacity="1" fill-rule="nonzero"/></g><path fill="#ffffff" d="M 97.15625 167.648438 C 96.035156 166.527344 94.792969 165.5625 93.433594 164.75 C 92.074219 163.9375 90.636719 163.300781 89.121094 162.84375 C 87.605469 162.386719 86.054688 162.121094 84.472656 162.046875 C 82.890625 161.976562 81.324219 162.09375 79.769531 162.410156 C 79.375 162.488281 79.046875 162.679688 78.78125 162.984375 C 78.519531 163.289062 78.375 163.644531 78.351562 164.046875 C 78.324219 164.570312 78.492188 165.015625 78.863281 165.386719 L 80.757812 167.28125 C 81.378906 167.890625 82.125 168.175781 82.996094 168.128906 C 83.449219 168.109375 83.902344 168.113281 84.355469 168.140625 C 84.808594 168.167969 85.257812 168.21875 85.707031 168.292969 C 86.152344 168.367188 86.597656 168.460938 87.035156 168.582031 C 87.472656 168.703125 87.902344 168.84375 88.324219 169.007812 C 88.746094 169.171875 89.160156 169.359375 89.5625 169.566406 C 89.964844 169.773438 90.359375 170 90.738281 170.246094 C 91.117188 170.496094 91.484375 170.761719 91.835938 171.046875 C 92.1875 171.332031 92.523438 171.636719 92.84375 171.957031 C 93.164062 172.277344 93.46875 172.613281 93.753906 172.964844 C 94.039062 173.316406 94.304688 173.683594 94.554688 174.0625 C 94.800781 174.445312 95.03125 174.835938 95.238281 175.238281 C 95.445312 175.640625 95.628906 176.054688 95.792969 176.476562 C 95.957031 176.902344 96.101562 177.332031 96.21875 177.769531 C 96.339844 178.207031 96.4375 178.648438 96.507812 179.09375 C 96.582031 179.542969 96.632812 179.992188 96.660156 180.445312 C 96.6875 180.898438 96.691406 181.351562 96.671875 181.804688 C 96.625 182.675781 96.910156 183.421875 97.523438 184.042969 L 99.414062 185.9375 C 99.785156 186.308594 100.230469 186.476562 100.753906 186.449219 C 101.15625 186.425781 101.511719 186.285156 101.816406 186.019531 C 102.121094 185.753906 102.3125 185.425781 102.390625 185.03125 C 102.707031 183.476562 102.828125 181.910156 102.753906 180.328125 C 102.679688 178.746094 102.414062 177.199219 101.957031 175.679688 C 101.5 174.164062 100.867188 172.726562 100.054688 171.367188 C 99.242188 170.007812 98.273438 168.769531 97.15625 167.648438 Z M 97.15625 167.648438 " fill-opacity="1" fill-rule="nonzero"/><g clip-path="url(#712fd165a4)"><path fill="#ffffff" d="M 104.457031 152.351562 L 97.628906 157.203125 C 95.425781 155.914062 93.09375 154.949219 90.621094 154.304688 L 89.226562 146.039062 C 89.1875 145.820312 89.113281 145.613281 89.003906 145.417969 C 88.894531 145.222656 88.75 145.054688 88.582031 144.910156 C 88.410156 144.765625 88.21875 144.652344 88.007812 144.578125 C 87.796875 144.5 87.582031 144.460938 87.355469 144.460938 L 79.792969 144.460938 C 79.566406 144.460938 79.351562 144.5 79.140625 144.578125 C 78.929688 144.652344 78.738281 144.765625 78.566406 144.910156 C 78.394531 145.054688 78.253906 145.222656 78.144531 145.417969 C 78.035156 145.613281 77.960938 145.820312 77.921875 146.039062 L 76.972656 151.65625 C 76.832031 152.496094 76.988281 153.277344 77.445312 154 C 78.34375 155.414062 78.746094 156.957031 78.652344 158.628906 C 78.648438 158.730469 78.664062 158.828125 78.703125 158.921875 C 78.742188 159.015625 78.800781 159.09375 78.875 159.160156 C 78.953125 159.226562 79.039062 159.273438 79.136719 159.300781 C 79.234375 159.328125 79.332031 159.332031 79.433594 159.3125 C 80.320312 159.144531 81.21875 159.03125 82.121094 158.972656 C 83.023438 158.910156 83.925781 158.90625 84.828125 158.957031 C 85.734375 159.007812 86.628906 159.113281 87.519531 159.273438 C 88.410156 159.433594 89.289062 159.644531 90.152344 159.910156 C 91.019531 160.179688 91.863281 160.496094 92.6875 160.863281 C 93.515625 161.234375 94.316406 161.652344 95.089844 162.121094 C 95.867188 162.585938 96.609375 163.097656 97.320312 163.65625 C 98.035156 164.214844 98.710938 164.8125 99.351562 165.453125 C 99.992188 166.089844 100.589844 166.769531 101.148438 167.480469 C 101.703125 168.191406 102.214844 168.9375 102.683594 169.710938 C 103.148438 170.488281 103.566406 171.289062 103.9375 172.113281 C 104.308594 172.941406 104.625 173.785156 104.890625 174.648438 C 105.15625 175.515625 105.371094 176.390625 105.53125 177.28125 C 105.691406 178.171875 105.796875 179.070312 105.84375 179.972656 C 105.894531 180.875 105.890625 181.78125 105.832031 182.683594 C 105.773438 183.585938 105.65625 184.480469 105.488281 185.371094 C 105.472656 185.46875 105.476562 185.566406 105.503906 185.664062 C 105.527344 185.761719 105.574219 185.851562 105.640625 185.925781 C 105.710938 186 105.789062 186.058594 105.882812 186.097656 C 105.976562 186.136719 106.074219 186.152344 106.175781 186.148438 C 107.847656 186.054688 109.390625 186.457031 110.804688 187.355469 C 111.523438 187.8125 112.304688 187.96875 113.144531 187.828125 L 118.761719 186.878906 C 118.984375 186.84375 119.191406 186.769531 119.386719 186.65625 C 119.578125 186.546875 119.75 186.40625 119.894531 186.234375 C 120.039062 186.0625 120.148438 185.871094 120.226562 185.664062 C 120.304688 185.453125 120.339844 185.234375 120.339844 185.011719 L 120.339844 177.445312 C 120.339844 177.222656 120.304688 177.003906 120.226562 176.792969 C 120.148438 176.582031 120.039062 176.390625 119.894531 176.222656 C 119.75 176.050781 119.578125 175.910156 119.386719 175.796875 C 119.191406 175.6875 118.984375 175.613281 118.761719 175.574219 L 110.496094 174.179688 C 109.855469 171.710938 108.886719 169.375 107.597656 167.171875 L 112.453125 160.34375 C 112.582031 160.160156 112.675781 159.960938 112.734375 159.746094 C 112.792969 159.53125 112.816406 159.308594 112.796875 159.085938 C 112.777344 158.863281 112.722656 158.648438 112.625 158.445312 C 112.53125 158.242188 112.40625 158.0625 112.246094 157.90625 L 109.570312 155.230469 L 106.898438 152.554688 C 106.738281 152.398438 106.558594 152.269531 106.355469 152.175781 C 106.152344 152.082031 105.9375 152.027344 105.714844 152.007812 C 105.492188 151.988281 105.273438 152.007812 105.054688 152.066406 C 104.839844 152.125 104.640625 152.222656 104.457031 152.351562 Z M 104.457031 152.351562 " fill-opacity="1" fill-rule="nonzero"/></g><g fill="#ff3131" fill-opacity="1"><g transform="translate(130.193346, 201.374987)"><g><path d="M 27.5 -42.25 L 27.5 -33.796875 L 12.703125 -33.796875 L 12.703125 -25.390625 L 26.375 -25.390625 L 26.375 -16.953125 L 12.703125 -16.953125 L 12.703125 0 L 3.078125 0 L 3.078125 -42.25 Z M 27.5 -42.25 "/></g></g></g><g fill="#ff3131" fill-opacity="1"><g transform="translate(154.409185, 201.374987)"><g><path d="M 3.9375 -40.90625 C 5 -41.96875 6.265625 -42.5 7.734375 -42.5 C 9.203125 -42.5 10.460938 -41.96875 11.515625 -40.90625 C 12.578125 -39.851562 13.109375 -38.59375 13.109375 -37.125 C 13.109375 -35.65625 12.578125 -34.390625 11.515625 -33.328125 C 10.460938 -32.273438 9.203125 -31.75 7.734375 -31.75 C 6.265625 -31.75 5 -32.273438 3.9375 -33.328125 C 2.882812 -34.390625 2.359375 -35.65625 2.359375 -37.125 C 2.359375 -38.59375 2.882812 -39.851562 3.9375 -40.90625 Z M 3.078125 -26.265625 L 3.078125 0 L 12.140625 0 L 12.140625 -26.265625 Z M 3.078125 -26.265625 "/></g></g></g><g fill="#ff3131" fill-opacity="1"><g transform="translate(165.057231, 201.374987)"><g><path d="M 33.484375 0 L 22.53125 0 L 16.75 -7.421875 L 10.953125 0 L 0 0 L 11.21875 -13.71875 L 1.59375 -26.265625 L 12.1875 -26.265625 L 16.75 -20.171875 L 21.296875 -26.265625 L 31.90625 -26.265625 L 22.265625 -13.71875 Z M 33.484375 0 "/></g></g></g><g fill="#ffffff" fill-opacity="1"><g transform="translate(193.732404, 201.374987)"><g><path d="M 12.703125 -42.25 L 12.703125 0 L 3.078125 0 L 3.078125 -42.25 Z M 12.703125 -42.25 "/></g></g></g><g fill="#ffffff" fill-opacity="1"><g transform="translate(204.687643, 201.374987)"><g><path d="M 4.609375 -26.265625 L 4.609375 -36.046875 L 13.671875 -36.046875 L 13.671875 -26.265625 L 19.203125 -26.265625 L 19.203125 -19.359375 L 13.671875 -19.359375 L 13.671875 -11.015625 C 13.671875 -8.585938 14.351562 -7.375 15.71875 -7.375 C 16.0625 -7.375 16.421875 -7.441406 16.796875 -7.578125 C 17.171875 -7.710938 17.460938 -7.847656 17.671875 -7.984375 L 17.96875 -8.1875 L 20.21875 -0.875 C 18.28125 0.21875 16.0625 0.765625 13.5625 0.765625 C 11.863281 0.765625 10.398438 0.46875 9.171875 -0.125 C 7.941406 -0.726562 7.007812 -1.53125 6.375 -2.53125 C 5.738281 -3.539062 5.285156 -4.597656 5.015625 -5.703125 C 4.742188 -6.816406 4.609375 -8.003906 4.609375 -9.265625 L 4.609375 -19.359375 L 0.8125 -19.359375 L 0.8125 -26.265625 Z M 4.609375 -26.265625 "/></g></g></g><g fill="#ffffff" fill-opacity="1"><g transform="translate(220.097209, 201.374987)"><g><path d="M 12.703125 -26.21875 L 12.703125 0 L 3.078125 0 L 3.078125 -42.25 L 12.703125 -42.25 L 29.5 -16.03125 L 29.59375 -16.03125 L 29.59375 -42.25 L 39.21875 -42.25 L 39.21875 0 L 29.59375 0 L 12.796875 -26.21875 Z M 12.703125 -26.21875 "/></g></g></g><g fill="#ffffff" fill-opacity="1"><g transform="translate(257.57366, 201.374987)"><g><path d="M 5.546875 -3.125 C 2.628906 -5.71875 1.171875 -9.046875 1.171875 -13.109375 C 1.171875 -17.171875 2.691406 -20.503906 5.734375 -23.109375 C 8.773438 -25.722656 12.53125 -27.03125 17 -27.03125 C 21.40625 -27.03125 25.117188 -25.71875 28.140625 -23.09375 C 31.160156 -20.46875 32.671875 -17.140625 32.671875 -13.109375 C 32.671875 -9.078125 31.191406 -5.753906 28.234375 -3.140625 C 25.285156 -0.535156 21.539062 0.765625 17 0.765625 C 12.289062 0.765625 8.472656 -0.53125 5.546875 -3.125 Z M 12.5625 -17.5625 C 11.382812 -16.40625 10.796875 -14.921875 10.796875 -13.109375 C 10.796875 -11.296875 11.359375 -9.816406 12.484375 -8.671875 C 13.617188 -7.535156 15.109375 -6.96875 16.953125 -6.96875 C 18.722656 -6.96875 20.179688 -7.546875 21.328125 -8.703125 C 22.472656 -9.867188 23.046875 -11.335938 23.046875 -13.109375 C 23.046875 -14.921875 22.457031 -16.40625 21.28125 -17.5625 C 20.101562 -18.71875 18.660156 -19.296875 16.953125 -19.296875 C 15.210938 -19.296875 13.75 -18.71875 12.5625 -17.5625 Z M 12.5625 -17.5625 "/></g></g></g><g fill="#ffffff" fill-opacity="1"><g transform="translate(286.602232, 201.374987)"><g><path d="M 19.203125 0 L 13.0625 0 L -1.03125 -26.265625 L 9.421875 -26.265625 L 15.828125 -12.078125 L 22.125 -26.265625 L 28.359375 -26.265625 L 34.671875 -12.078125 L 41.0625 -26.265625 L 51.515625 -26.265625 L 37.421875 0 L 31.28125 0 L 25.25 -13.5625 Z M 19.203125 0 "/></g></g></g><g fill="#ffffff" fill-opacity="1"><g transform="translate(135.729386, 215.284291)"><g><path d="M 5.53125 -7.21875 C 5.675781 -7.21875 5.796875 -7.175781 5.890625 -7.09375 C 5.984375 -7.007812 6.03125 -6.894531 6.03125 -6.75 C 6.03125 -6.601562 5.984375 -6.488281 5.890625 -6.40625 C 5.796875 -6.320312 5.675781 -6.28125 5.53125 -6.28125 L 3.703125 -6.28125 L 3.703125 -0.5 C 3.703125 -0.351562 3.648438 -0.234375 3.546875 -0.140625 C 3.453125 -0.046875 3.328125 0 3.171875 0 C 3.023438 0 2.898438 -0.046875 2.796875 -0.140625 C 2.703125 -0.234375 2.65625 -0.351562 2.65625 -0.5 L 2.65625 -6.28125 L 0.828125 -6.28125 C 0.679688 -6.28125 0.5625 -6.320312 0.46875 -6.40625 C 0.375 -6.488281 0.328125 -6.601562 0.328125 -6.75 C 0.328125 -6.894531 0.375 -7.007812 0.46875 -7.09375 C 0.5625 -7.175781 0.679688 -7.21875 0.828125 -7.21875 Z M 5.53125 -7.21875 "/></g></g></g><g fill="#ffffff" fill-opacity="1"><g transform="translate(148.805182, 215.284291)"><g><path d="M 1.65625 -0.5 C 1.65625 -0.351562 1.609375 -0.234375 1.515625 -0.140625 C 1.421875 -0.046875 1.304688 0 1.171875 0 C 1.023438 0 0.90625 -0.046875 0.8125 -0.140625 C 0.726562 -0.234375 0.6875 -0.351562 0.6875 -0.5 L 0.6875 -4.953125 C 0.6875 -5.097656 0.726562 -5.21875 0.8125 -5.3125 C 0.90625 -5.40625 1.023438 -5.453125 1.171875 -5.453125 C 1.304688 -5.453125 1.421875 -5.40625 1.515625 -5.3125 C 1.609375 -5.21875 1.65625 -5.097656 1.65625 -4.953125 Z M 1.15625 -6.140625 C 0.957031 -6.140625 0.816406 -6.175781 0.734375 -6.25 C 0.648438 -6.320312 0.609375 -6.4375 0.609375 -6.59375 L 0.609375 -6.75 C 0.609375 -6.914062 0.65625 -7.03125 0.75 -7.09375 C 0.84375 -7.164062 0.984375 -7.203125 1.171875 -7.203125 C 1.359375 -7.203125 1.492188 -7.164062 1.578125 -7.09375 C 1.671875 -7.019531 1.71875 -6.90625 1.71875 -6.75 L 1.71875 -6.59375 C 1.71875 -6.425781 1.671875 -6.304688 1.578125 -6.234375 C 1.492188 -6.171875 1.351562 -6.140625 1.15625 -6.140625 Z M 1.15625 -6.140625 "/></g></g></g><g fill="#ffffff" fill-opacity="1"><g transform="translate(157.863677, 215.284291)"><g><path d="M 3.078125 -5.53125 C 3.617188 -5.53125 4.070312 -5.441406 4.4375 -5.265625 C 4.800781 -5.097656 4.984375 -4.878906 4.984375 -4.609375 C 4.984375 -4.492188 4.941406 -4.390625 4.859375 -4.296875 C 4.785156 -4.203125 4.691406 -4.15625 4.578125 -4.15625 C 4.484375 -4.15625 4.410156 -4.164062 4.359375 -4.1875 C 4.316406 -4.21875 4.25 -4.265625 4.15625 -4.328125 C 4.113281 -4.367188 4.046875 -4.414062 3.953125 -4.46875 C 3.878906 -4.507812 3.765625 -4.546875 3.609375 -4.578125 C 3.453125 -4.609375 3.316406 -4.625 3.203125 -4.625 C 2.835938 -4.625 2.515625 -4.539062 2.234375 -4.375 C 1.960938 -4.207031 1.75 -3.976562 1.59375 -3.6875 C 1.445312 -3.394531 1.375 -3.070312 1.375 -2.71875 C 1.375 -2.351562 1.445312 -2.023438 1.59375 -1.734375 C 1.75 -1.441406 1.957031 -1.210938 2.21875 -1.046875 C 2.488281 -0.878906 2.796875 -0.796875 3.140625 -0.796875 C 3.503906 -0.796875 3.796875 -0.851562 4.015625 -0.96875 C 4.054688 -1 4.117188 -1.046875 4.203125 -1.109375 C 4.273438 -1.160156 4.335938 -1.195312 4.390625 -1.21875 C 4.441406 -1.25 4.503906 -1.265625 4.578125 -1.265625 C 4.710938 -1.265625 4.816406 -1.222656 4.890625 -1.140625 C 4.972656 -1.054688 5.015625 -0.941406 5.015625 -0.796875 C 5.015625 -0.660156 4.921875 -0.519531 4.734375 -0.375 C 4.554688 -0.238281 4.316406 -0.125 4.015625 -0.03125 C 3.710938 0.0625 3.382812 0.109375 3.03125 0.109375 C 2.507812 0.109375 2.046875 -0.0078125 1.640625 -0.25 C 1.242188 -0.5 0.9375 -0.835938 0.71875 -1.265625 C 0.507812 -1.703125 0.40625 -2.1875 0.40625 -2.71875 C 0.40625 -3.238281 0.515625 -3.710938 0.734375 -4.140625 C 0.960938 -4.578125 1.28125 -4.914062 1.6875 -5.15625 C 2.09375 -5.40625 2.554688 -5.53125 3.078125 -5.53125 Z M 3.078125 -5.53125 "/></g></g></g><g fill="#ffffff" fill-opacity="1"><g transform="translate(169.878491, 215.284291)"><g><path d="M 5.140625 -0.859375 C 5.242188 -0.742188 5.296875 -0.625 5.296875 -0.5 C 5.296875 -0.351562 5.242188 -0.234375 5.140625 -0.140625 C 5.035156 -0.0546875 4.925781 -0.015625 4.8125 -0.015625 C 4.65625 -0.015625 4.53125 -0.0664062 4.4375 -0.171875 L 2.40625 -2.328125 L 1.796875 -1.78125 L 1.796875 -0.5 C 1.796875 -0.351562 1.75 -0.234375 1.65625 -0.140625 C 1.5625 -0.046875 1.445312 0 1.3125 0 C 1.164062 0 1.046875 -0.046875 0.953125 -0.140625 C 0.859375 -0.234375 0.8125 -0.351562 0.8125 -0.5 L 0.8125 -7.140625 C 0.8125 -7.273438 0.859375 -7.390625 0.953125 -7.484375 C 1.046875 -7.578125 1.164062 -7.625 1.3125 -7.625 C 1.445312 -7.625 1.5625 -7.578125 1.65625 -7.484375 C 1.75 -7.390625 1.796875 -7.273438 1.796875 -7.140625 L 1.796875 -2.953125 L 4.328125 -5.265625 C 4.441406 -5.367188 4.5625 -5.421875 4.6875 -5.421875 C 4.800781 -5.421875 4.90625 -5.367188 5 -5.265625 C 5.09375 -5.171875 5.140625 -5.066406 5.140625 -4.953125 C 5.140625 -4.816406 5.078125 -4.695312 4.953125 -4.59375 L 3.171875 -3 Z M 5.140625 -0.859375 "/></g></g></g><g fill="#ffffff" fill-opacity="1"><g transform="translate(182.315637, 215.284291)"><g><path d="M 5.46875 -2.90625 C 5.46875 -2.78125 5.414062 -2.675781 5.3125 -2.59375 C 5.21875 -2.507812 5.109375 -2.46875 4.984375 -2.46875 L 1.34375 -2.46875 C 1.394531 -1.96875 1.585938 -1.5625 1.921875 -1.25 C 2.253906 -0.945312 2.660156 -0.796875 3.140625 -0.796875 C 3.472656 -0.796875 3.742188 -0.84375 3.953125 -0.9375 C 4.160156 -1.039062 4.34375 -1.164062 4.5 -1.3125 C 4.601562 -1.375 4.703125 -1.40625 4.796875 -1.40625 C 4.910156 -1.40625 5.003906 -1.363281 5.078125 -1.28125 C 5.160156 -1.207031 5.203125 -1.113281 5.203125 -1 C 5.203125 -0.851562 5.132812 -0.722656 5 -0.609375 C 4.800781 -0.410156 4.535156 -0.238281 4.203125 -0.09375 C 3.878906 0.0390625 3.546875 0.109375 3.203125 0.109375 C 2.640625 0.109375 2.144531 -0.00390625 1.71875 -0.234375 C 1.300781 -0.472656 0.976562 -0.800781 0.75 -1.21875 C 0.519531 -1.644531 0.40625 -2.125 0.40625 -2.65625 C 0.40625 -3.226562 0.519531 -3.734375 0.75 -4.171875 C 0.988281 -4.609375 1.300781 -4.941406 1.6875 -5.171875 C 2.082031 -5.410156 2.503906 -5.53125 2.953125 -5.53125 C 3.390625 -5.53125 3.800781 -5.414062 4.1875 -5.1875 C 4.570312 -4.957031 4.878906 -4.644531 5.109375 -4.25 C 5.347656 -3.851562 5.46875 -3.40625 5.46875 -2.90625 Z M 2.953125 -4.625 C 2.566406 -4.625 2.234375 -4.515625 1.953125 -4.296875 C 1.671875 -4.078125 1.484375 -3.742188 1.390625 -3.296875 L 4.4375 -3.296875 L 4.4375 -3.375 C 4.40625 -3.738281 4.238281 -4.035156 3.9375 -4.265625 C 3.644531 -4.503906 3.316406 -4.625 2.953125 -4.625 Z M 2.953125 -4.625 "/></g></g></g><g fill="#ffffff" fill-opacity="1"><g transform="translate(194.907291, 215.284291)"><g><path d="M 2.203125 -4.4375 L 2.203125 -1.375 C 2.203125 -1.03125 2.351562 -0.859375 2.65625 -0.859375 C 2.707031 -0.859375 2.773438 -0.867188 2.859375 -0.890625 C 2.941406 -0.910156 3.003906 -0.921875 3.046875 -0.921875 C 3.140625 -0.921875 3.21875 -0.882812 3.28125 -0.8125 C 3.34375 -0.738281 3.375 -0.644531 3.375 -0.53125 C 3.375 -0.382812 3.289062 -0.257812 3.125 -0.15625 C 2.957031 -0.0507812 2.769531 0 2.5625 0 C 2.34375 0 2.132812 -0.0195312 1.9375 -0.0625 C 1.75 -0.113281 1.582031 -0.238281 1.4375 -0.4375 C 1.289062 -0.632812 1.21875 -0.929688 1.21875 -1.328125 L 1.21875 -4.4375 L 0.625 -4.4375 C 0.488281 -4.4375 0.378906 -4.476562 0.296875 -4.5625 C 0.210938 -4.65625 0.171875 -4.769531 0.171875 -4.90625 C 0.171875 -5.03125 0.210938 -5.132812 0.296875 -5.21875 C 0.378906 -5.300781 0.488281 -5.34375 0.625 -5.34375 L 1.21875 -5.34375 L 1.21875 -6.203125 C 1.21875 -6.347656 1.265625 -6.46875 1.359375 -6.5625 C 1.453125 -6.65625 1.570312 -6.703125 1.71875 -6.703125 C 1.851562 -6.703125 1.96875 -6.65625 2.0625 -6.5625 C 2.15625 -6.46875 2.203125 -6.347656 2.203125 -6.203125 L 2.203125 -5.34375 L 3.046875 -5.34375 C 3.179688 -5.34375 3.289062 -5.296875 3.375 -5.203125 C 3.457031 -5.117188 3.5 -5.015625 3.5 -4.890625 C 3.5 -4.753906 3.457031 -4.644531 3.375 -4.5625 C 3.289062 -4.476562 3.179688 -4.4375 3.046875 -4.4375 Z M 2.203125 -4.4375 "/></g></g></g><g fill="#ffffff" fill-opacity="1"><g transform="translate(205.541809, 215.284291)"><g><path d="M 1.65625 -0.5 C 1.65625 -0.351562 1.609375 -0.234375 1.515625 -0.140625 C 1.421875 -0.046875 1.304688 0 1.171875 0 C 1.023438 0 0.90625 -0.046875 0.8125 -0.140625 C 0.726562 -0.234375 0.6875 -0.351562 0.6875 -0.5 L 0.6875 -4.953125 C 0.6875 -5.097656 0.726562 -5.21875 0.8125 -5.3125 C 0.90625 -5.40625 1.023438 -5.453125 1.171875 -5.453125 C 1.304688 -5.453125 1.421875 -5.40625 1.515625 -5.3125 C 1.609375 -5.21875 1.65625 -5.097656 1.65625 -4.953125 Z M 1.15625 -6.140625 C 0.957031 -6.140625 0.816406 -6.175781 0.734375 -6.25 C 0.648438 -6.320312 0.609375 -6.4375 0.609375 -6.59375 L 0.609375 -6.75 C 0.609375 -6.914062 0.65625 -7.03125 0.75 -7.09375 C 0.84375 -7.164062 0.984375 -7.203125 1.171875 -7.203125 C 1.359375 -7.203125 1.492188 -7.164062 1.578125 -7.09375 C 1.671875 -7.019531 1.71875 -6.90625 1.71875 -6.75 L 1.71875 -6.59375 C 1.71875 -6.425781 1.671875 -6.304688 1.578125 -6.234375 C 1.492188 -6.171875 1.351562 -6.140625 1.15625 -6.140625 Z M 1.15625 -6.140625 "/></g></g></g><g fill="#ffffff" fill-opacity="1"><g transform="translate(214.600305, 215.284291)"><g><path d="M 3.484375 -5.53125 C 4.722656 -5.53125 5.34375 -4.785156 5.34375 -3.296875 L 5.34375 -0.5 C 5.34375 -0.351562 5.296875 -0.234375 5.203125 -0.140625 C 5.109375 -0.046875 4.988281 0 4.84375 0 C 4.707031 0 4.59375 -0.046875 4.5 -0.140625 C 4.40625 -0.234375 4.359375 -0.351562 4.359375 -0.5 L 4.359375 -3.296875 C 4.359375 -3.691406 4.265625 -4.007812 4.078125 -4.25 C 3.898438 -4.5 3.597656 -4.625 3.171875 -4.625 C 2.898438 -4.625 2.648438 -4.5625 2.421875 -4.4375 C 2.203125 -4.320312 2.03125 -4.160156 1.90625 -3.953125 C 1.78125 -3.753906 1.71875 -3.535156 1.71875 -3.296875 L 1.71875 -0.5 C 1.71875 -0.351562 1.671875 -0.234375 1.578125 -0.140625 C 1.484375 -0.046875 1.363281 0 1.21875 0 C 1.070312 0 0.953125 -0.046875 0.859375 -0.140625 C 0.773438 -0.234375 0.734375 -0.351562 0.734375 -0.5 L 0.734375 -4.90625 C 0.734375 -5.039062 0.78125 -5.15625 0.875 -5.25 C 0.96875 -5.351562 1.082031 -5.40625 1.21875 -5.40625 C 1.363281 -5.40625 1.484375 -5.351562 1.578125 -5.25 C 1.671875 -5.15625 1.71875 -5.039062 1.71875 -4.90625 L 1.71875 -4.546875 C 1.894531 -4.816406 2.140625 -5.046875 2.453125 -5.234375 C 2.773438 -5.429688 3.117188 -5.53125 3.484375 -5.53125 Z M 3.484375 -5.53125 "/></g></g></g><g fill="#ffffff" fill-opacity="1"><g transform="translate(227.387675, 215.284291)"><g><path d="M 5.25 -5.46875 C 5.394531 -5.46875 5.515625 -5.421875 5.609375 -5.328125 C 5.703125 -5.242188 5.75 -5.125 5.75 -4.96875 L 5.75 -0.4375 C 5.75 0.125 5.628906 0.59375 5.390625 0.96875 C 5.148438 1.34375 4.828125 1.617188 4.421875 1.796875 C 4.015625 1.972656 3.554688 2.0625 3.046875 2.0625 C 2.773438 2.0625 2.453125 2.015625 2.078125 1.921875 C 1.710938 1.828125 1.476562 1.726562 1.375 1.625 C 1.164062 1.507812 1.0625 1.367188 1.0625 1.203125 C 1.0625 1.160156 1.078125 1.109375 1.109375 1.046875 C 1.179688 0.867188 1.304688 0.78125 1.484375 0.78125 C 1.578125 0.78125 1.675781 0.800781 1.78125 0.84375 C 2.320312 1.0625 2.75 1.171875 3.0625 1.171875 C 3.613281 1.171875 4.035156 1.035156 4.328125 0.765625 C 4.617188 0.503906 4.765625 0.144531 4.765625 -0.3125 L 4.765625 -0.875 C 4.617188 -0.601562 4.375 -0.367188 4.03125 -0.171875 C 3.695312 0.015625 3.335938 0.109375 2.953125 0.109375 C 2.484375 0.109375 2.050781 -0.0078125 1.65625 -0.25 C 1.269531 -0.5 0.960938 -0.835938 0.734375 -1.265625 C 0.515625 -1.691406 0.40625 -2.175781 0.40625 -2.71875 C 0.40625 -3.25 0.515625 -3.726562 0.734375 -4.15625 C 0.960938 -4.59375 1.269531 -4.929688 1.65625 -5.171875 C 2.039062 -5.410156 2.46875 -5.53125 2.9375 -5.53125 C 3.3125 -5.53125 3.660156 -5.441406 3.984375 -5.265625 C 4.316406 -5.097656 4.578125 -4.890625 4.765625 -4.640625 L 4.765625 -4.96875 C 4.765625 -5.113281 4.804688 -5.234375 4.890625 -5.328125 C 4.984375 -5.421875 5.101562 -5.46875 5.25 -5.46875 Z M 3.078125 -0.796875 C 3.410156 -0.796875 3.707031 -0.878906 3.96875 -1.046875 C 4.226562 -1.210938 4.429688 -1.441406 4.578125 -1.734375 C 4.734375 -2.023438 4.8125 -2.351562 4.8125 -2.71875 C 4.8125 -3.082031 4.734375 -3.40625 4.578125 -3.6875 C 4.429688 -3.976562 4.226562 -4.207031 3.96875 -4.375 C 3.707031 -4.539062 3.410156 -4.625 3.078125 -4.625 C 2.742188 -4.625 2.445312 -4.539062 2.1875 -4.375 C 1.925781 -4.207031 1.71875 -3.976562 1.5625 -3.6875 C 1.414062 -3.394531 1.34375 -3.070312 1.34375 -2.71875 C 1.34375 -2.351562 1.414062 -2.023438 1.5625 -1.734375 C 1.71875 -1.441406 1.925781 -1.210938 2.1875 -1.046875 C 2.445312 -0.878906 2.742188 -0.796875 3.078125 -0.796875 Z M 3.078125 -0.796875 "/></g></g></g><g fill="#ffffff" fill-opacity="1"><g transform="translate(240.566485, 215.284291)"><g/></g></g><g fill="#ffffff" fill-opacity="1"><g transform="translate(250.140028, 215.284291)"><g><path d="M 3.046875 0.109375 C 2.546875 0.109375 2.101562 0.0390625 1.71875 -0.09375 C 1.332031 -0.238281 0.960938 -0.472656 0.609375 -0.796875 C 0.460938 -0.921875 0.390625 -1.0625 0.390625 -1.21875 C 0.390625 -1.34375 0.4375 -1.453125 0.53125 -1.546875 C 0.632812 -1.648438 0.75 -1.703125 0.875 -1.703125 C 0.988281 -1.703125 1.085938 -1.664062 1.171875 -1.59375 C 1.453125 -1.332031 1.738281 -1.140625 2.03125 -1.015625 C 2.320312 -0.898438 2.648438 -0.84375 3.015625 -0.84375 C 3.453125 -0.84375 3.816406 -0.941406 4.109375 -1.140625 C 4.410156 -1.335938 4.5625 -1.585938 4.5625 -1.890625 C 4.5625 -2.253906 4.414062 -2.53125 4.125 -2.71875 C 3.832031 -2.914062 3.382812 -3.082031 2.78125 -3.21875 C 2.070312 -3.363281 1.523438 -3.597656 1.140625 -3.921875 C 0.765625 -4.253906 0.578125 -4.710938 0.578125 -5.296875 C 0.578125 -5.703125 0.679688 -6.054688 0.890625 -6.359375 C 1.109375 -6.671875 1.40625 -6.910156 1.78125 -7.078125 C 2.15625 -7.242188 2.582031 -7.328125 3.0625 -7.328125 C 3.488281 -7.328125 3.890625 -7.253906 4.265625 -7.109375 C 4.648438 -6.972656 4.957031 -6.789062 5.1875 -6.5625 C 5.34375 -6.425781 5.421875 -6.28125 5.421875 -6.125 C 5.421875 -6 5.375 -5.890625 5.28125 -5.796875 C 5.1875 -5.703125 5.078125 -5.65625 4.953125 -5.65625 C 4.859375 -5.65625 4.78125 -5.679688 4.71875 -5.734375 C 4.53125 -5.910156 4.28125 -6.0625 3.96875 -6.1875 C 3.65625 -6.3125 3.351562 -6.375 3.0625 -6.375 C 2.601562 -6.375 2.238281 -6.28125 1.96875 -6.09375 C 1.695312 -5.90625 1.5625 -5.65625 1.5625 -5.34375 C 1.5625 -5.007812 1.695312 -4.75 1.96875 -4.5625 C 2.238281 -4.382812 2.640625 -4.234375 3.171875 -4.109375 C 3.710938 -3.992188 4.148438 -3.859375 4.484375 -3.703125 C 4.828125 -3.546875 5.09375 -3.328125 5.28125 -3.046875 C 5.46875 -2.765625 5.5625 -2.394531 5.5625 -1.9375 C 5.5625 -1.539062 5.445312 -1.1875 5.21875 -0.875 C 5 -0.5625 4.695312 -0.316406 4.3125 -0.140625 C 3.925781 0.0234375 3.503906 0.109375 3.046875 0.109375 Z M 3.046875 0.109375 "/></g></g></g><g fill="#ffffff" fill-opacity="1"><g transform="translate(262.855294, 215.284291)"><g><path d="M 5.46875 -2.90625 C 5.46875 -2.78125 5.414062 -2.675781 5.3125 -2.59375 C 5.21875 -2.507812 5.109375 -2.46875 4.984375 -2.46875 L 1.34375 -2.46875 C 1.394531 -1.96875 1.585938 -1.5625 1.921875 -1.25 C 2.253906 -0.945312 2.660156 -0.796875 3.140625 -0.796875 C 3.472656 -0.796875 3.742188 -0.84375 3.953125 -0.9375 C 4.160156 -1.039062 4.34375 -1.164062 4.5 -1.3125 C 4.601562 -1.375 4.703125 -1.40625 4.796875 -1.40625 C 4.910156 -1.40625 5.003906 -1.363281 5.078125 -1.28125 C 5.160156 -1.207031 5.203125 -1.113281 5.203125 -1 C 5.203125 -0.851562 5.132812 -0.722656 5 -0.609375 C 4.800781 -0.410156 4.535156 -0.238281 4.203125 -0.09375 C 3.878906 0.0390625 3.546875 0.109375 3.203125 0.109375 C 2.640625 0.109375 2.144531 -0.00390625 1.71875 -0.234375 C 1.300781 -0.472656 0.976562 -0.800781 0.75 -1.21875 C 0.519531 -1.644531 0.40625 -2.125 0.40625 -2.65625 C 0.40625 -3.226562 0.519531 -3.734375 0.75 -4.171875 C 0.988281 -4.609375 1.300781 -4.941406 1.6875 -5.171875 C 2.082031 -5.410156 2.503906 -5.53125 2.953125 -5.53125 C 3.390625 -5.53125 3.800781 -5.414062 4.1875 -5.1875 C 4.570312 -4.957031 4.878906 -4.644531 5.109375 -4.25 C 5.347656 -3.851562 5.46875 -3.40625 5.46875 -2.90625 Z M 2.953125 -4.625 C 2.566406 -4.625 2.234375 -4.515625 1.953125 -4.296875 C 1.671875 -4.078125 1.484375 -3.742188 1.390625 -3.296875 L 4.4375 -3.296875 L 4.4375 -3.375 C 4.40625 -3.738281 4.238281 -4.035156 3.9375 -4.265625 C 3.644531 -4.503906 3.316406 -4.625 2.953125 -4.625 Z M 2.953125 -4.625 "/></g></g></g><g fill="#ffffff" fill-opacity="1"><g transform="translate(275.446953, 215.284291)"><g><path d="M 3.421875 -5.53125 C 3.597656 -5.53125 3.75 -5.484375 3.875 -5.390625 C 4.007812 -5.296875 4.078125 -5.179688 4.078125 -5.046875 C 4.078125 -4.878906 4.035156 -4.75 3.953125 -4.65625 C 3.867188 -4.570312 3.765625 -4.53125 3.640625 -4.53125 C 3.578125 -4.53125 3.484375 -4.550781 3.359375 -4.59375 C 3.210938 -4.644531 3.097656 -4.671875 3.015625 -4.671875 C 2.804688 -4.671875 2.597656 -4.597656 2.390625 -4.453125 C 2.191406 -4.304688 2.03125 -4.101562 1.90625 -3.84375 C 1.78125 -3.582031 1.71875 -3.296875 1.71875 -2.984375 L 1.71875 -0.5 C 1.71875 -0.351562 1.671875 -0.234375 1.578125 -0.140625 C 1.484375 -0.046875 1.363281 0 1.21875 0 C 1.070312 0 0.953125 -0.046875 0.859375 -0.140625 C 0.773438 -0.234375 0.734375 -0.351562 0.734375 -0.5 L 0.734375 -4.90625 C 0.734375 -5.039062 0.78125 -5.15625 0.875 -5.25 C 0.96875 -5.351562 1.082031 -5.40625 1.21875 -5.40625 C 1.363281 -5.40625 1.484375 -5.351562 1.578125 -5.25 C 1.671875 -5.15625 1.71875 -5.039062 1.71875 -4.90625 L 1.71875 -4.390625 C 1.863281 -4.722656 2.085938 -4.992188 2.390625 -5.203125 C 2.691406 -5.410156 3.035156 -5.519531 3.421875 -5.53125 Z M 3.421875 -5.53125 "/></g></g></g><g fill="#ffffff" fill-opacity="1"><g transform="translate(286.421401, 215.284291)"><g><path d="M 4.859375 -5.453125 C 4.984375 -5.453125 5.09375 -5.410156 5.1875 -5.328125 C 5.28125 -5.242188 5.328125 -5.140625 5.328125 -5.015625 C 5.328125 -4.953125 5.300781 -4.867188 5.25 -4.765625 L 3.296875 -0.3125 C 3.253906 -0.21875 3.191406 -0.144531 3.109375 -0.09375 C 3.035156 -0.0390625 2.953125 -0.0078125 2.859375 0 C 2.753906 0.0078125 2.65625 -0.0078125 2.5625 -0.0625 C 2.46875 -0.113281 2.394531 -0.195312 2.34375 -0.3125 L 0.390625 -4.765625 C 0.359375 -4.867188 0.34375 -4.953125 0.34375 -5.015625 C 0.34375 -5.128906 0.382812 -5.226562 0.46875 -5.3125 C 0.5625 -5.40625 0.679688 -5.453125 0.828125 -5.453125 C 0.929688 -5.453125 1.023438 -5.425781 1.109375 -5.375 C 1.191406 -5.320312 1.253906 -5.242188 1.296875 -5.140625 L 2.859375 -1.53125 L 4.40625 -5.140625 C 4.507812 -5.347656 4.660156 -5.453125 4.859375 -5.453125 Z M 4.859375 -5.453125 "/></g></g></g><g fill="#ffffff" fill-opacity="1"><g transform="translate(298.786444, 215.284291)"><g><path d="M 1.65625 -0.5 C 1.65625 -0.351562 1.609375 -0.234375 1.515625 -0.140625 C 1.421875 -0.046875 1.304688 0 1.171875 0 C 1.023438 0 0.90625 -0.046875 0.8125 -0.140625 C 0.726562 -0.234375 0.6875 -0.351562 0.6875 -0.5 L 0.6875 -4.953125 C 0.6875 -5.097656 0.726562 -5.21875 0.8125 -5.3125 C 0.90625 -5.40625 1.023438 -5.453125 1.171875 -5.453125 C 1.304688 -5.453125 1.421875 -5.40625 1.515625 -5.3125 C 1.609375 -5.21875 1.65625 -5.097656 1.65625 -4.953125 Z M 1.15625 -6.140625 C 0.957031 -6.140625 0.816406 -6.175781 0.734375 -6.25 C 0.648438 -6.320312 0.609375 -6.4375 0.609375 -6.59375 L 0.609375 -6.75 C 0.609375 -6.914062 0.65625 -7.03125 0.75 -7.09375 C 0.84375 -7.164062 0.984375 -7.203125 1.171875 -7.203125 C 1.359375 -7.203125 1.492188 -7.164062 1.578125 -7.09375 C 1.671875 -7.019531 1.71875 -6.90625 1.71875 -6.75 L 1.71875 -6.59375 C 1.71875 -6.425781 1.671875 -6.304688 1.578125 -6.234375 C 1.492188 -6.171875 1.351562 -6.140625 1.15625 -6.140625 Z M 1.15625 -6.140625 "/></g></g></g><g fill="#ffffff" fill-opacity="1"><g transform="translate(307.844946, 215.284291)"><g><path d="M 3.078125 -5.53125 C 3.617188 -5.53125 4.070312 -5.441406 4.4375 -5.265625 C 4.800781 -5.097656 4.984375 -4.878906 4.984375 -4.609375 C 4.984375 -4.492188 4.941406 -4.390625 4.859375 -4.296875 C 4.785156 -4.203125 4.691406 -4.15625 4.578125 -4.15625 C 4.484375 -4.15625 4.410156 -4.164062 4.359375 -4.1875 C 4.316406 -4.21875 4.25 -4.265625 4.15625 -4.328125 C 4.113281 -4.367188 4.046875 -4.414062 3.953125 -4.46875 C 3.878906 -4.507812 3.765625 -4.546875 3.609375 -4.578125 C 3.453125 -4.609375 3.316406 -4.625 3.203125 -4.625 C 2.835938 -4.625 2.515625 -4.539062 2.234375 -4.375 C 1.960938 -4.207031 1.75 -3.976562 1.59375 -3.6875 C 1.445312 -3.394531 1.375 -3.070312 1.375 -2.71875 C 1.375 -2.351562 1.445312 -2.023438 1.59375 -1.734375 C 1.75 -1.441406 1.957031 -1.210938 2.21875 -1.046875 C 2.488281 -0.878906 2.796875 -0.796875 3.140625 -0.796875 C 3.503906 -0.796875 3.796875 -0.851562 4.015625 -0.96875 C 4.054688 -1 4.117188 -1.046875 4.203125 -1.109375 C 4.273438 -1.160156 4.335938 -1.195312 4.390625 -1.21875 C 4.441406 -1.25 4.503906 -1.265625 4.578125 -1.265625 C 4.710938 -1.265625 4.816406 -1.222656 4.890625 -1.140625 C 4.972656 -1.054688 5.015625 -0.941406 5.015625 -0.796875 C 5.015625 -0.660156 4.921875 -0.519531 4.734375 -0.375 C 4.554688 -0.238281 4.316406 -0.125 4.015625 -0.03125 C 3.710938 0.0625 3.382812 0.109375 3.03125 0.109375 C 2.507812 0.109375 2.046875 -0.0078125 1.640625 -0.25 C 1.242188 -0.5 0.9375 -0.835938 0.71875 -1.265625 C 0.507812 -1.703125 0.40625 -2.1875 0.40625 -2.71875 C 0.40625 -3.238281 0.515625 -3.710938 0.734375 -4.140625 C 0.960938 -4.578125 1.28125 -4.914062 1.6875 -5.15625 C 2.09375 -5.40625 2.554688 -5.53125 3.078125 -5.53125 Z M 3.078125 -5.53125 "/></g></g></g><g fill="#ffffff" fill-opacity="1"><g transform="translate(319.859754, 215.284291)"><g><path d="M 5.46875 -2.90625 C 5.46875 -2.78125 5.414062 -2.675781 5.3125 -2.59375 C 5.21875 -2.507812 5.109375 -2.46875 4.984375 -2.46875 L 1.34375 -2.46875 C 1.394531 -1.96875 1.585938 -1.5625 1.921875 -1.25 C 2.253906 -0.945312 2.660156 -0.796875 3.140625 -0.796875 C 3.472656 -0.796875 3.742188 -0.84375 3.953125 -0.9375 C 4.160156 -1.039062 4.34375 -1.164062 4.5 -1.3125 C 4.601562 -1.375 4.703125 -1.40625 4.796875 -1.40625 C 4.910156 -1.40625 5.003906 -1.363281 5.078125 -1.28125 C 5.160156 -1.207031 5.203125 -1.113281 5.203125 -1 C 5.203125 -0.851562 5.132812 -0.722656 5 -0.609375 C 4.800781 -0.410156 4.535156 -0.238281 4.203125 -0.09375 C 3.878906 0.0390625 3.546875 0.109375 3.203125 0.109375 C 2.640625 0.109375 2.144531 -0.00390625 1.71875 -0.234375 C 1.300781 -0.472656 0.976562 -0.800781 0.75 -1.21875 C 0.519531 -1.644531 0.40625 -2.125 0.40625 -2.65625 C 0.40625 -3.226562 0.519531 -3.734375 0.75 -4.171875 C 0.988281 -4.609375 1.300781 -4.941406 1.6875 -5.171875 C 2.082031 -5.410156 2.503906 -5.53125 2.953125 -5.53125 C 3.390625 -5.53125 3.800781 -5.414062 4.1875 -5.1875 C 4.570312 -4.957031 4.878906 -4.644531 5.109375 -4.25 C 5.347656 -3.851562 5.46875 -3.40625 5.46875 -2.90625 Z M 2.953125 -4.625 C 2.566406 -4.625 2.234375 -4.515625 1.953125 -4.296875 C 1.671875 -4.078125 1.484375 -3.742188 1.390625 -3.296875 L 4.4375 -3.296875 L 4.4375 -3.375 C 4.40625 -3.738281 4.238281 -4.035156 3.9375 -4.265625 C 3.644531 -4.503906 3.316406 -4.625 2.953125 -4.625 Z M 2.953125 -4.625 "/></g></g></g></svg>